<?xml version="1.0" encoding="utf-8"?>
<!-- Generator: Adobe Illustrator 27.5.0, SVG Export Plug-In . SVG Version: 6.00 Build 0)  -->
<svg version="1.1" id="Camada_1" xmlns="http://www.w3.org/2000/svg" xmlns:xlink="http://www.w3.org/1999/xlink" x="0px" y="0px"
	 viewBox="0 0 311.28 311" style="enable-background:new 0 0 311.28 311;" xml:space="preserve">
<style type="text/css">
	.st0{fill:none;stroke:#020203;stroke-width:0.5368;stroke-miterlimit:10;}
	.st1{fill:#0F0B0A;}
	.st2{opacity:0.6;fill:#FFFFFF;}
	.st3{fill:#020203;}
	.st4{fill:#FFFFFF;}
	.st5{fill:#414142;}
</style>
<g>
	<path class="st0" d="M58.57,28.64c-0.14,0.11-0.28,0.23-0.42,0.34c-0.06-0.02-0.12-0.04-0.18-0.06
		C58.17,28.83,58.36,28.73,58.57,28.64z"/>
	<path class="st1" d="M302.61,101.37c-0.04-0.1-0.08-0.2-0.12-0.3c-5.32-13.24-13.5-25.04-23.78-34.62c-0.01,0-0.01,0-0.01-0.01
		c-1.66-1.83-3.37-3.62-5.12-5.36c-10.02-10.02-21.4-18.66-33.84-25.63c-0.35-0.27-0.71-0.53-1.07-0.79
		c4.66-2.27,9.46-4.17,14.46-5.67c-15.82-8.19-34.69-11.01-52.83-8.96c-13.61,1.54-26.81,5.81-37.99,12.63
		c0.92-6.21,3.27-11.9,6.76-16.78c2.05-2.87,4.49-5.46,7.26-7.7c-5.61,1.43-10.72,4.07-15.06,7.65c-2.07,1.71-3.96,3.63-5.64,5.74
		c-1.69-2.11-3.58-4.04-5.64-5.74c-4.34-3.58-9.44-6.22-15.06-7.65c2.77,2.24,5.21,4.83,7.26,7.7c3.49,4.88,5.84,10.57,6.76,16.78
		c-11.18-6.82-24.38-11.1-37.99-12.63c-18.13-2.05-37.01,0.78-52.83,8.96c5,1.5,9.8,3.4,14.46,5.67c-0.36,0.26-0.72,0.52-1.07,0.79
		c-12.44,6.97-23.82,15.62-33.84,25.63c-1.74,1.74-3.45,3.54-5.12,5.36c0,0.01,0,0.01-0.01,0.01
		c-10.29,9.58-18.46,21.38-23.78,34.62c-0.04,0.1-0.09,0.2-0.12,0.3c5.82-6.79,12.55-12.76,20.02-17.71
		c-27.95,47.03-26.81,115.06,5,160.34c-0.3-9.74,0.31-19.52,1.84-29.14c2.88,24.17,14.98,47.16,33.82,62.4
		c-1.21-4.76-2.08-9.67-2.56-14.69c23.87,22.08,54.71,36.72,88.85,40.25c34.14-3.53,64.99-18.18,88.85-40.25
		c-0.48,5.02-1.34,9.93-2.56,14.69c18.84-15.25,30.94-38.24,33.82-62.4c1.53,9.62,2.14,19.4,1.84,29.14
		c31.81-45.28,32.95-113.31,5-160.34C290.06,88.61,296.79,94.58,302.61,101.37z"/>
	<path class="st2" d="M248.78,89.25c-7.01-5.78-14.59-10.39-22.51-13.89c-0.19-0.12-0.38-0.24-0.57-0.35
		c4.96-6.52,8.56-14.13,10.4-22.4c0.02-0.09,0.04-0.18,0.06-0.27c0.39-1.75,0.69-3.53,0.9-5.33c-3.3,3.15-7.7,5.14-12.57,5.33v0.03
		c-12.88,0.81-25.08,4.13-36.12,9.5c-3.54,1.72-6.96,3.64-10.24,5.78c-1.74,1.13-3.45,2.31-5.12,3.55l-0.01,0.01
		c-3.81,2.83-7.4,5.93-10.75,9.28c-2.32,2.32-4.53,4.76-6.6,7.32h-0.55c-2.07-2.56-4.28-5-6.6-7.32c-3.35-3.35-6.94-6.45-10.75-9.28
		l-0.01-0.01c-1.66-1.24-3.37-2.42-5.12-3.55c-3.28-2.13-6.7-4.06-10.24-5.78c-11.03-5.37-23.23-8.7-36.12-9.5v-0.03
		c-4.87-0.19-9.27-2.18-12.57-5.33c0.21,1.8,0.52,3.58,0.9,5.33c0.02,0.09,0.04,0.18,0.06,0.27c1.84,8.27,5.44,15.88,10.4,22.4
		c-0.19,0.12-0.39,0.24-0.57,0.35c-7.92,3.49-15.5,8.11-22.51,13.89c-31.28,25.77-42.2,67.09-30.77,103.52
		c1.08-9.66,3.62-19.16,7.57-28.15c1.65,23.24,11.54,44.21,26.74,60.01c5.22,17.19,18.21,30.99,34.89,37.33
		c-4.16-5.44-7.38-11.63-9.4-18.35h-0.01c-0.11-0.35-0.21-0.71-0.31-1.06c0.79,0.71,1.59,1.42,2.4,2.1
		c11.09,9.42,24.33,16.38,38.89,20.03c7.13,1.8,14.58,2.79,22.24,2.89l0,0.02c0.3,0.01,0.61,0.01,0.91,0.01c0.08,0,0.16,0,0.24,0
		c0.08,0,0.16,0,0.24,0c0.31,0,0.61,0,0.91-0.01l0-0.02c7.66-0.11,15.11-1.1,22.24-2.89c14.55-3.66,27.8-10.61,38.89-20.03
		c0.81-0.69,1.61-1.39,2.4-2.1c-0.1,0.35-0.2,0.71-0.31,1.06h-0.01c-2.02,6.72-5.24,12.91-9.4,18.35
		c16.67-6.33,29.67-20.14,34.89-37.33c15.2-15.8,25.08-36.77,26.74-60.01c3.96,8.99,6.49,18.49,7.57,28.15
		C290.98,156.34,280.07,115.02,248.78,89.25z"/>
	<path class="st3" d="M173.81,181.21c-0.16,10.68-25.38,8.18-32.29,6.04c-7.85-2.3-4-11.91,0.35-15.84
		C151.59,160.84,172.11,166.6,173.81,181.21z"/>
	<circle class="st4" cx="144.9" cy="178.11" r="2.15"/>
	<circle class="st4" cx="166.37" cy="178.11" r="2.15"/>
	<path class="st3" d="M115.33,213.8c9.69,15.63,27.31,25.83,45.73,26.47c2.66,0.15,5.33,0.06,7.98-0.19
		c0.07-0.01,0.13,0.04,0.14,0.11c0.01,0.07-0.04,0.12-0.1,0.14c-2.65,0.42-5.33,0.68-8.02,0.7c-13.61,0.29-27.25-4.29-37.89-12.87
		c-4.3-3.43-8.15-7.46-11.4-11.96c-0.69-0.96-0.48-2.3,0.48-3C113.25,212.47,114.68,212.75,115.33,213.8L115.33,213.8z"/>
	<path class="st5" d="M99.71,167.49H77.36c-15.17,0-27.47-12.3-27.47-27.47v-22.35c0-15.17,12.3-27.47,27.47-27.47h22.35
		c15.17,0,27.47,12.3,27.47,27.47v22.35C127.19,155.19,114.89,167.49,99.71,167.49z"/>
	<path class="st5" d="M233.91,167.49h-22.35c-15.17,0-27.47-12.3-27.47-27.47v-22.35c0-15.17,12.3-27.47,27.47-27.47h22.35
		c15.17,0,27.47,12.3,27.47,27.47v22.35C261.39,155.19,249.09,167.49,233.91,167.49z"/>
	<g>
		<rect x="22.39" y="100.18" class="st3" width="12.11" height="12.11"/>
		<rect x="34.5" y="100.18" class="st3" width="12.11" height="12.11"/>
		<rect x="46.62" y="100.18" class="st3" width="12.11" height="12.11"/>
		<rect x="58.73" y="100.18" class="st3" width="12.11" height="12.11"/>
		<rect x="70.84" y="100.18" class="st3" width="12.11" height="12.11"/>
		<rect x="82.96" y="100.18" class="st3" width="12.11" height="12.11"/>
		<rect x="95.07" y="100.18" class="st3" width="12.11" height="12.11"/>
		<rect x="107.18" y="100.18" class="st3" width="12.11" height="12.11"/>
		<rect x="119.3" y="100.18" class="st3" width="12.11" height="12.11"/>
		<rect x="131.41" y="100.18" class="st3" width="12.11" height="12.11"/>
		<rect x="143.52" y="100.18" class="st3" width="12.11" height="12.11"/>
		<rect x="22.39" y="112.29" class="st3" width="12.11" height="12.11"/>
		<rect x="34.5" y="112.29" class="st3" width="12.11" height="12.11"/>
		<rect x="46.62" y="112.29" class="st3" width="12.11" height="12.11"/>
		<rect x="58.73" y="112.29" class="st3" width="12.11" height="12.11"/>
		<rect x="70.84" y="112.29" class="st4" width="12.11" height="12.11"/>
		<rect x="82.96" y="112.29" class="st3" width="12.11" height="12.11"/>
		<rect x="95.07" y="112.29" class="st3" width="12.11" height="12.11"/>
		<rect x="107.18" y="112.29" class="st3" width="12.11" height="12.11"/>
		<rect x="119.3" y="112.29" class="st3" width="12.11" height="12.11"/>
		<rect x="131.41" y="112.29" class="st3" width="12.11" height="12.11"/>
		<rect x="143.52" y="112.29" class="st3" width="12.11" height="12.11"/>
		<rect x="34.5" y="124.41" class="st3" width="12.11" height="12.11"/>
		<rect x="46.62" y="124.41" class="st3" width="12.11" height="12.11"/>
		<rect x="58.73" y="124.41" class="st3" width="12.11" height="12.11"/>
		<rect x="70.84" y="124.41" class="st3" width="12.11" height="12.11"/>
		<rect x="82.96" y="124.41" class="st3" width="12.11" height="12.11"/>
		<rect x="95.07" y="124.41" class="st3" width="12.11" height="12.11"/>
		<rect x="107.18" y="124.41" class="st3" width="12.11" height="12.11"/>
		<rect x="119.3" y="124.41" class="st3" width="12.11" height="12.11"/>
		<rect x="131.41" y="124.41" class="st3" width="12.11" height="12.11"/>
		<rect x="46.62" y="136.52" class="st3" width="12.11" height="12.11"/>
		<rect x="58.73" y="136.52" class="st3" width="12.11" height="12.11"/>
		<rect x="70.84" y="136.52" class="st3" width="12.11" height="12.11"/>
		<rect x="82.96" y="136.52" class="st3" width="12.11" height="12.11"/>
		<rect x="95.07" y="136.52" class="st3" width="12.11" height="12.11"/>
		<rect x="107.18" y="136.52" class="st3" width="12.11" height="12.11"/>
		<rect x="119.3" y="136.52" class="st3" width="12.11" height="12.11"/>
		<rect x="58.73" y="148.63" class="st3" width="12.11" height="12.11"/>
		<rect x="70.84" y="148.63" class="st3" width="12.11" height="12.11"/>
		<rect x="82.96" y="148.63" class="st3" width="12.11" height="12.11"/>
		<rect x="95.07" y="148.63" class="st3" width="12.11" height="12.11"/>
		<rect x="107.18" y="148.63" class="st3" width="12.11" height="12.11"/>
		<rect x="95.07" y="112.29" class="st4" width="12.11" height="12.11"/>
		<rect x="119.3" y="112.29" class="st3" width="12.11" height="12.11"/>
		<rect x="82.96" y="124.41" class="st4" width="12.11" height="12.11"/>
		<rect x="107.18" y="124.41" class="st4" width="12.11" height="12.11"/>
		<rect x="70.84" y="136.52" class="st3" width="12.11" height="12.11"/>
		<rect x="95.07" y="136.52" class="st4" width="12.11" height="12.11"/>
		<rect x="276.77" y="100.18" class="st3" width="12.11" height="12.11"/>
		<rect x="264.66" y="100.18" class="st3" width="12.11" height="12.11"/>
		<rect x="252.55" y="100.18" class="st3" width="12.11" height="12.11"/>
		<rect x="240.43" y="100.18" class="st3" width="12.11" height="12.11"/>
		<rect x="228.32" y="100.18" class="st3" width="12.11" height="12.11"/>
		<rect x="216.21" y="100.18" class="st3" width="12.11" height="12.11"/>
		<rect x="204.09" y="100.18" class="st3" width="12.11" height="12.11"/>
		<rect x="191.98" y="100.18" class="st3" width="12.11" height="12.11"/>
		<rect x="179.87" y="100.18" class="st3" width="12.11" height="12.11"/>
		<rect x="167.75" y="100.18" class="st3" width="12.11" height="12.11"/>
		<rect x="155.64" y="100.18" class="st3" width="12.11" height="12.11"/>
		<rect x="276.77" y="112.29" class="st3" width="12.11" height="12.11"/>
		<rect x="264.66" y="112.29" class="st3" width="12.11" height="12.11"/>
		<rect x="252.55" y="112.29" class="st3" width="12.11" height="12.11"/>
		<rect x="240.43" y="112.29" class="st3" width="12.11" height="12.11"/>
		<rect x="228.32" y="112.29" class="st3" width="12.11" height="12.11"/>
		<rect x="216.21" y="112.29" class="st3" width="12.11" height="12.11"/>
		<rect x="204.09" y="112.29" class="st3" width="12.11" height="12.11"/>
		<rect x="191.98" y="112.29" class="st3" width="12.11" height="12.11"/>
		<rect x="179.87" y="112.29" class="st3" width="12.11" height="12.11"/>
		<rect x="167.75" y="112.29" class="st3" width="12.11" height="12.11"/>
		<rect x="155.64" y="112.29" class="st3" width="12.11" height="12.11"/>
		<rect x="264.66" y="124.41" class="st3" width="12.11" height="12.11"/>
		<rect x="252.55" y="124.41" class="st3" width="12.11" height="12.11"/>
		<rect x="240.43" y="124.41" class="st3" width="12.11" height="12.11"/>
		<rect x="228.32" y="124.41" class="st3" width="12.11" height="12.11"/>
		<rect x="216.21" y="124.41" class="st3" width="12.11" height="12.11"/>
		<rect x="204.09" y="124.41" class="st3" width="12.11" height="12.11"/>
		<rect x="191.98" y="124.41" class="st3" width="12.11" height="12.11"/>
		<rect x="179.87" y="124.41" class="st3" width="12.11" height="12.11"/>
		<rect x="167.75" y="124.41" class="st3" width="12.11" height="12.11"/>
		<rect x="252.55" y="136.52" class="st3" width="12.11" height="12.11"/>
		<rect x="240.43" y="136.52" class="st3" width="12.11" height="12.11"/>
		<rect x="228.32" y="136.52" class="st3" width="12.11" height="12.11"/>
		<rect x="216.21" y="136.52" class="st3" width="12.11" height="12.11"/>
		<rect x="204.09" y="136.52" class="st3" width="12.11" height="12.11"/>
		<rect x="191.98" y="136.52" class="st3" width="12.11" height="12.11"/>
		<rect x="179.87" y="136.52" class="st3" width="12.11" height="12.11"/>
		<rect x="240.43" y="148.63" class="st3" width="12.11" height="12.11"/>
		<rect x="228.32" y="148.63" class="st3" width="12.11" height="12.11"/>
		<rect x="216.21" y="148.63" class="st3" width="12.11" height="12.11"/>
		<rect x="204.09" y="148.63" class="st3" width="12.11" height="12.11"/>
		<rect x="191.98" y="148.63" class="st3" width="12.11" height="12.11"/>
		<rect x="204.09" y="112.29" class="st4" width="12.11" height="12.11"/>
		<rect x="179.86" y="112.29" class="st3" width="12.11" height="12.11"/>
		<rect x="216.21" y="124.41" class="st4" width="12.11" height="12.11"/>
		<rect x="191.98" y="124.41" class="st4" width="12.11" height="12.11"/>
		<rect x="228.32" y="136.52" class="st3" width="12.11" height="12.11"/>
		<rect x="204.09" y="136.52" class="st4" width="12.11" height="12.11"/>
	</g>
</g>
</svg>
