<?xml version="1.0" encoding="utf-8"?>
<!-- Generator: Adobe Illustrator 27.5.0, SVG Export Plug-In . SVG Version: 6.00 Build 0)  -->
<svg version="1.1" id="Camada_1" xmlns="http://www.w3.org/2000/svg" xmlns:xlink="http://www.w3.org/1999/xlink" x="0px" y="0px"
	 viewBox="0 0 337.28 421" style="enable-background:new 0 0 337.28 421;" xml:space="preserve">
<style type="text/css">
	.st0{fill:none;stroke:#020203;stroke-width:0.5368;stroke-miterlimit:10;}
	.st1{fill:#0F0B0A;}
	.st2{fill:#FFFFFF;}
	.st3{fill:#020203;}
	.st4{fill:#BCBCBB;}
	.st5{fill:#FFFFFF;stroke:#FFFFFF;stroke-width:1.5978;stroke-miterlimit:10;}
</style>
<g>
	<path class="st0" d="M71.57,33.57c-0.14,0.11-0.28,0.23-0.42,0.34c-0.06-0.02-0.12-0.04-0.18-0.06
		C71.17,33.75,71.36,33.66,71.57,33.57z"/>
	<path class="st1" d="M315.61,106.29c-0.04-0.1-0.08-0.2-0.12-0.3c-5.32-13.24-13.5-25.04-23.78-34.62c-0.01,0-0.01,0-0.01-0.01
		c-1.66-1.83-3.37-3.62-5.12-5.36c-10.02-10.02-21.4-18.66-33.84-25.63c-0.35-0.27-0.71-0.53-1.07-0.79
		c4.66-2.27,9.46-4.17,14.46-5.67c-15.82-8.19-34.69-11.01-52.83-8.96c-13.61,1.54-26.81,5.81-37.99,12.63
		c0.92-6.21,3.27-11.9,6.76-16.78c2.05-2.87,4.49-5.46,7.26-7.7c-5.61,1.43-10.72,4.07-15.06,7.65c-2.07,1.71-3.96,3.63-5.64,5.74
		c-1.69-2.11-3.58-4.04-5.64-5.74c-4.34-3.58-9.44-6.22-15.06-7.65c2.77,2.24,5.21,4.83,7.26,7.7c3.49,4.88,5.84,10.57,6.76,16.78
		c-11.18-6.82-24.38-11.1-37.99-12.63c-18.13-2.05-37.01,0.78-52.83,8.96c5,1.5,9.8,3.4,14.46,5.67c-0.36,0.26-0.72,0.52-1.07,0.79
		C72.09,47.34,60.71,55.98,50.69,66c-1.74,1.74-3.45,3.54-5.12,5.36c0,0.01,0,0.01-0.01,0.01c-10.29,9.58-18.46,21.38-23.78,34.62
		c-0.04,0.1-0.09,0.2-0.12,0.3c5.82-6.79,12.55-12.76,20.02-17.71c-27.95,47.03-26.81,115.06,5,160.34
		c-0.3-9.74,0.31-19.52,1.84-29.14c2.88,24.17,14.98,47.16,33.82,62.4c-1.21-4.76-2.08-9.67-2.56-14.69
		c23.87,22.08,54.71,36.72,88.85,40.25c34.14-3.53,64.99-18.18,88.85-40.25c-0.48,5.02-1.34,9.93-2.56,14.69
		c18.84-15.25,30.94-38.24,33.82-62.4c1.53,9.62,2.14,19.4,1.84,29.14c31.81-45.28,32.95-113.31,5-160.34
		C303.06,93.53,309.79,99.5,315.61,106.29z"/>
	<path class="st2" d="M261.78,94.17c-7.01-5.78-14.59-10.39-22.51-13.89c-0.19-0.12-0.38-0.24-0.57-0.35
		c4.96-6.52,8.56-14.13,10.4-22.4c0.02-0.09,0.04-0.18,0.06-0.27c0.39-1.75,0.69-3.53,0.9-5.33c-3.3,3.15-7.7,5.14-12.57,5.33v0.03
		c-12.88,0.81-25.08,4.13-36.12,9.5c-3.54,1.72-6.96,3.64-10.24,5.78c-1.74,1.13-3.45,2.31-5.12,3.55l-0.01,0.01
		c-3.81,2.83-7.4,5.93-10.75,9.28c-2.32,2.32-4.53,4.76-6.6,7.32h-0.55c-2.07-2.56-4.28-5-6.6-7.32c-3.35-3.35-6.94-6.45-10.75-9.28
		l-0.01-0.01c-1.66-1.24-3.37-2.42-5.12-3.55c-3.28-2.13-6.7-4.06-10.24-5.78c-11.03-5.37-23.23-8.7-36.12-9.5v-0.03
		c-4.87-0.19-9.27-2.18-12.57-5.33c0.21,1.8,0.52,3.58,0.9,5.33c0.02,0.09,0.04,0.18,0.06,0.27c1.84,8.27,5.44,15.88,10.4,22.4
		c-0.19,0.12-0.39,0.24-0.57,0.35c-7.92,3.49-15.5,8.11-22.51,13.89c-31.28,25.77-42.2,67.09-30.77,103.52
		c1.08-9.66,3.62-19.16,7.57-28.15c1.65,23.24,11.54,44.21,26.74,60.01c5.22,17.19,18.21,30.99,34.89,37.33
		c-4.16-5.44-7.38-11.63-9.4-18.35h-0.01c-0.11-0.35-0.21-0.71-0.31-1.06c0.79,0.71,1.59,1.42,2.4,2.1
		c11.09,9.42,24.33,16.38,38.89,20.03c7.13,1.8,14.58,2.79,22.24,2.89l0,0.02c0.3,0.01,0.61,0.01,0.91,0.01c0.08,0,0.16,0,0.24,0
		c0.08,0,0.16,0,0.24,0c0.31,0,0.61,0,0.91-0.01l0-0.02c7.66-0.11,15.11-1.1,22.24-2.89c14.55-3.66,27.8-10.61,38.89-20.03
		c0.81-0.69,1.61-1.39,2.4-2.1c-0.1,0.35-0.2,0.71-0.31,1.06h-0.01c-2.02,6.72-5.24,12.91-9.4,18.35
		c16.67-6.33,29.67-20.14,34.89-37.33c15.2-15.8,25.08-36.77,26.74-60.01c3.96,8.99,6.49,18.49,7.57,28.15
		C303.98,161.27,293.07,119.94,261.78,94.17z"/>
	<path class="st3" d="M186.81,186.14c-0.16,10.68-25.38,8.18-32.29,6.04c-7.85-2.3-4-11.91,0.35-15.84
		C164.59,165.77,185.11,171.52,186.81,186.14z"/>
	<circle class="st2" cx="157.9" cy="183.03" r="2.15"/>
	<circle class="st2" cx="179.37" cy="183.03" r="2.15"/>
	<path class="st3" d="M128.33,218.73c9.69,15.63,27.31,25.83,45.73,26.47c2.66,0.15,5.33,0.06,7.98-0.19
		c0.07-0.01,0.13,0.04,0.14,0.11c0.01,0.07-0.04,0.12-0.1,0.14c-2.65,0.42-5.33,0.68-8.02,0.7c-13.61,0.29-27.25-4.29-37.89-12.87
		c-4.3-3.43-8.15-7.46-11.4-11.96c-0.69-0.96-0.48-2.3,0.48-3C126.25,217.39,127.68,217.67,128.33,218.73L128.33,218.73z"/>
	<path class="st4" d="M101.54,172.42L101.54,172.42c-21.35,0-38.65-17.3-38.65-38.65v0c0-21.35,17.3-38.65,38.65-38.65h0
		c21.35,0,38.65,17.3,38.65,38.65v0C140.19,155.11,122.88,172.42,101.54,172.42z"/>
	<path class="st4" d="M235.74,172.42L235.74,172.42c-21.35,0-38.65-17.3-38.65-38.65v0c0-21.35,17.3-38.65,38.65-38.65h0
		c21.35,0,38.65,17.3,38.65,38.65v0C274.39,155.11,257.08,172.42,235.74,172.42z"/>
	<g>
		<rect x="35.39" y="105.11" class="st3" width="12.11" height="12.11"/>
		<rect x="47.5" y="105.11" class="st3" width="12.11" height="12.11"/>
		<rect x="59.62" y="105.11" class="st3" width="12.11" height="12.11"/>
		<rect x="71.73" y="105.11" class="st3" width="12.11" height="12.11"/>
		<rect x="83.84" y="105.11" class="st3" width="12.11" height="12.11"/>
		<rect x="95.96" y="105.11" class="st3" width="12.11" height="12.11"/>
		<rect x="108.07" y="105.11" class="st3" width="12.11" height="12.11"/>
		<rect x="120.18" y="105.11" class="st3" width="12.11" height="12.11"/>
		<rect x="132.3" y="105.11" class="st3" width="12.11" height="12.11"/>
		<rect x="144.41" y="105.11" class="st3" width="12.11" height="12.11"/>
		<rect x="156.52" y="105.11" class="st3" width="12.11" height="12.11"/>
		<rect x="35.39" y="117.22" class="st3" width="12.11" height="12.11"/>
		<rect x="47.5" y="117.22" class="st3" width="12.11" height="12.11"/>
		<rect x="59.62" y="117.22" class="st3" width="12.11" height="12.11"/>
		<rect x="71.73" y="117.22" class="st3" width="12.11" height="12.11"/>
		<rect x="83.84" y="117.22" class="st2" width="12.11" height="12.11"/>
		<rect x="95.96" y="117.22" class="st3" width="12.11" height="12.11"/>
		<rect x="108.07" y="117.22" class="st3" width="12.11" height="12.11"/>
		<rect x="120.18" y="117.22" class="st3" width="12.11" height="12.11"/>
		<rect x="132.3" y="117.22" class="st3" width="12.11" height="12.11"/>
		<rect x="144.41" y="117.22" class="st3" width="12.11" height="12.11"/>
		<rect x="156.52" y="117.22" class="st3" width="12.11" height="12.11"/>
		<rect x="47.5" y="129.33" class="st3" width="12.11" height="12.11"/>
		<rect x="59.62" y="129.33" class="st3" width="12.11" height="12.11"/>
		<rect x="71.73" y="129.33" class="st3" width="12.11" height="12.11"/>
		<rect x="83.84" y="129.33" class="st3" width="12.11" height="12.11"/>
		<rect x="95.96" y="129.33" class="st3" width="12.11" height="12.11"/>
		<rect x="108.07" y="129.33" class="st3" width="12.11" height="12.11"/>
		<rect x="120.18" y="129.33" class="st3" width="12.11" height="12.11"/>
		<rect x="132.3" y="129.33" class="st3" width="12.11" height="12.11"/>
		<rect x="144.41" y="129.33" class="st3" width="12.11" height="12.11"/>
		<rect x="59.62" y="141.45" class="st3" width="12.11" height="12.11"/>
		<rect x="71.73" y="141.45" class="st3" width="12.11" height="12.11"/>
		<rect x="83.84" y="141.45" class="st3" width="12.11" height="12.11"/>
		<rect x="95.96" y="141.45" class="st3" width="12.11" height="12.11"/>
		<rect x="108.07" y="141.45" class="st3" width="12.11" height="12.11"/>
		<rect x="120.18" y="141.45" class="st3" width="12.11" height="12.11"/>
		<rect x="132.3" y="141.45" class="st3" width="12.11" height="12.11"/>
		<rect x="71.73" y="153.56" class="st3" width="12.11" height="12.11"/>
		<rect x="83.84" y="153.56" class="st3" width="12.11" height="12.11"/>
		<rect x="95.96" y="153.56" class="st3" width="12.11" height="12.11"/>
		<rect x="108.07" y="153.56" class="st3" width="12.11" height="12.11"/>
		<rect x="120.18" y="153.56" class="st3" width="12.11" height="12.11"/>
		<rect x="108.07" y="117.22" class="st2" width="12.11" height="12.11"/>
		<rect x="132.3" y="117.22" class="st3" width="12.11" height="12.11"/>
		<rect x="95.96" y="129.33" class="st2" width="12.11" height="12.11"/>
		<rect x="120.18" y="129.33" class="st2" width="12.11" height="12.11"/>
		<rect x="83.84" y="141.45" class="st3" width="12.11" height="12.11"/>
		<rect x="108.07" y="141.45" class="st2" width="12.11" height="12.11"/>
		<rect x="289.77" y="105.11" class="st3" width="12.11" height="12.11"/>
		<rect x="277.66" y="105.11" class="st3" width="12.11" height="12.11"/>
		<rect x="265.55" y="105.11" class="st3" width="12.11" height="12.11"/>
		<rect x="253.43" y="105.11" class="st3" width="12.11" height="12.11"/>
		<rect x="241.32" y="105.11" class="st3" width="12.11" height="12.11"/>
		<rect x="229.21" y="105.11" class="st3" width="12.11" height="12.11"/>
		<rect x="217.09" y="105.11" class="st3" width="12.11" height="12.11"/>
		<rect x="204.98" y="105.11" class="st3" width="12.11" height="12.11"/>
		<rect x="192.87" y="105.11" class="st3" width="12.11" height="12.11"/>
		<rect x="180.75" y="105.11" class="st3" width="12.11" height="12.11"/>
		<rect x="168.64" y="105.11" class="st3" width="12.11" height="12.11"/>
		<rect x="289.77" y="117.22" class="st3" width="12.11" height="12.11"/>
		<rect x="277.66" y="117.22" class="st3" width="12.11" height="12.11"/>
		<rect x="265.55" y="117.22" class="st3" width="12.11" height="12.11"/>
		<rect x="253.43" y="117.22" class="st3" width="12.11" height="12.11"/>
		<rect x="241.32" y="117.22" class="st3" width="12.11" height="12.11"/>
		<rect x="229.21" y="117.22" class="st3" width="12.11" height="12.11"/>
		<rect x="217.09" y="117.22" class="st3" width="12.11" height="12.11"/>
		<rect x="204.98" y="117.22" class="st3" width="12.11" height="12.11"/>
		<rect x="192.87" y="117.22" class="st3" width="12.11" height="12.11"/>
		<rect x="180.75" y="117.22" class="st3" width="12.11" height="12.11"/>
		<rect x="168.64" y="117.22" class="st3" width="12.11" height="12.11"/>
		<rect x="277.66" y="129.33" class="st3" width="12.11" height="12.11"/>
		<rect x="265.55" y="129.33" class="st3" width="12.11" height="12.11"/>
		<rect x="253.43" y="129.33" class="st3" width="12.11" height="12.11"/>
		<rect x="241.32" y="129.33" class="st3" width="12.11" height="12.11"/>
		<rect x="229.21" y="129.33" class="st3" width="12.11" height="12.11"/>
		<rect x="217.09" y="129.33" class="st3" width="12.11" height="12.11"/>
		<rect x="204.98" y="129.33" class="st3" width="12.11" height="12.11"/>
		<rect x="192.87" y="129.33" class="st3" width="12.11" height="12.11"/>
		<rect x="180.75" y="129.33" class="st3" width="12.11" height="12.11"/>
		<rect x="265.55" y="141.45" class="st3" width="12.11" height="12.11"/>
		<rect x="253.43" y="141.45" class="st3" width="12.11" height="12.11"/>
		<rect x="241.32" y="141.45" class="st3" width="12.11" height="12.11"/>
		<rect x="229.21" y="141.45" class="st3" width="12.11" height="12.11"/>
		<rect x="217.09" y="141.45" class="st3" width="12.11" height="12.11"/>
		<rect x="204.98" y="141.45" class="st3" width="12.11" height="12.11"/>
		<rect x="192.87" y="141.45" class="st3" width="12.11" height="12.11"/>
		<rect x="253.43" y="153.56" class="st3" width="12.11" height="12.11"/>
		<rect x="241.32" y="153.56" class="st3" width="12.11" height="12.11"/>
		<rect x="229.21" y="153.56" class="st3" width="12.11" height="12.11"/>
		<rect x="217.09" y="153.56" class="st3" width="12.11" height="12.11"/>
		<rect x="204.98" y="153.56" class="st3" width="12.11" height="12.11"/>
		<rect x="217.09" y="117.22" class="st2" width="12.11" height="12.11"/>
		<rect x="192.87" y="117.22" class="st3" width="12.11" height="12.11"/>
		<rect x="229.21" y="129.33" class="st2" width="12.11" height="12.11"/>
		<rect x="204.98" y="129.33" class="st2" width="12.11" height="12.11"/>
		<rect x="241.32" y="141.45" class="st3" width="12.11" height="12.11"/>
		<rect x="217.09" y="141.45" class="st2" width="12.11" height="12.11"/>
	</g>
</g>
<g>
	<g>
		<g>
			<path class="st2" d="M207.73,348.37v3c0,0.35,0.29,0.63,0.63,0.63h4.79c1.67,0,3.12,1.39,3.12,3.12v7.33
				c0,3.29-2.66,5.89-5.89,5.89H191.9c-2.43,0-4.39-1.96-4.39-4.39v-32.46c0-2.37,1.96-4.33,4.39-4.33h18.77
				c3.06,0,5.6,2.48,5.6,5.54v8.08c0,1.5-1.21,2.71-2.71,2.71H212v1.56c0,1.5-1.21,2.71-2.71,2.71h-0.92
				C208.02,347.79,207.73,348.02,207.73,348.37z M205.48,336.65c0-0.52-0.4-0.98-0.92-0.98h-1.79c-0.46,0-0.87-0.4-0.87-0.87v-2.54
				c0-0.46-0.4-0.87-0.87-0.87h-1.91c-0.46,0-0.81,0.4-0.81,0.87v14.44c0,0.58,0.46,1.04,1.04,1.04h5.08c0.58,0,1.04-0.46,1.04-1.04
				V336.65z M205.48,357.32c0-0.58-0.46-1.04-1.04-1.04h-5.14c-0.52,0-0.98,0.46-0.98,1.04v1.56c0,0.52,0.4,0.98,0.92,0.98h1.73
				c0.52,0,0.92,0.4,0.92,0.87v2.37c0,0.52,0.46,0.98,0.98,0.98h1.56c0.58,0,1.04-0.46,1.04-0.98V357.32z"/>
			<path class="st2" d="M248.21,330.06v18.89c0,1.73-1.33,3.06-3.06,3.06H244v1.21c0,1.68-1.39,3.06-3.06,3.06h-0.92
				c-0.4,0-0.75,0.35-0.75,0.75v8.84c0,1.39-1.1,2.48-2.48,2.48H231c-1.39,0-2.54-1.1-2.54-2.48v-8.84c0-0.4-0.29-0.75-0.69-0.75
				h-0.92c-1.68,0-3.06-1.39-3.06-3.06v-1.21h-1.16c-1.73,0-3.12-1.39-3.12-3.06v-18.89c0-1.62,1.33-2.89,2.89-2.89h4.97
				c1.62,0,2.95,1.27,2.95,2.89v16.75c0,0.52,0.4,0.98,0.92,0.98h1.67c0.52,0,0.98,0.4,0.98,0.92v2.37c0,0.52,0.4,0.92,0.92,0.92
				h1.67c0.52,0,0.98-0.4,0.98-0.92v-21.02c0-1.62,1.27-2.89,2.89-2.89h4.97C246.94,327.17,248.21,328.44,248.21,330.06z"/>
			<path class="st2" d="M253.18,327.17h28.76c0.98,0,1.73,0.75,1.73,1.73v10.68c0,0.58-0.46,1.1-1.1,1.1h-1.33
				c-0.64,0-1.16-0.52-1.16-1.1v-3c0-0.52-0.4-0.92-0.87-0.92h-1.5c-0.63,0-1.16-0.52-1.16-1.16v-2.25c0-0.46-0.35-0.87-0.81-0.87
				h-1.91c-0.46,0-0.87,0.4-0.87,0.87v33.44c0,1.5-1.16,2.66-2.66,2.66h-5.49c-1.44,0-2.66-1.16-2.66-2.66v-33.44
				c0-0.46-0.35-0.87-0.81-0.87h-1.91c-0.46,0-0.87,0.4-0.87,0.87v2.25c0,0.64-0.52,1.16-1.16,1.16h-1.56
				c-0.46,0-0.87,0.4-0.87,0.92v3c0,0.58-0.52,1.1-1.1,1.1h-1.33c-0.64,0-1.16-0.52-1.16-1.1v-10.68
				C251.45,327.92,252.25,327.17,253.18,327.17z"/>
			<path class="st2" d="M304.87,341.27v-4.68c0-0.52-0.4-0.92-0.92-0.92h-1.73c-0.52,0-0.92-0.4-0.92-0.92v-2.37
				c0-0.52-0.46-0.98-0.98-0.98h-1.67c-0.52,0-0.92,0.46-0.92,0.98v15.36h2.25c0.75,0,1.33,0.63,1.33,1.33v5.89
				c0,0.75-0.58,1.33-1.33,1.33h-2.25v2.6c0,0.52,0.4,0.98,0.92,0.98h1.67c0.52,0,0.98,0.4,0.98,0.92v2.37
				c0,0.52,0.4,0.92,0.92,0.92h1.68c0.52,0,0.98-0.4,0.98-0.92v-7.51c0-1.73,1.39-3.18,3.18-3.18h4.45c1.73,0,3.12,1.44,3.12,3.18
				v5.37c0,1.73-1.33,3.06-3.06,3.06h-1.16v1.21c0,1.68-1.39,3.06-3.06,3.06h-14.09c-1.67,0-3.06-1.39-3.06-3.06v-1.21h-1.16
				c-1.73,0-3.12-1.33-3.12-3.06v-26.34c0-1.79,1.44-3.29,3.29-3.29h0.98v-0.98c0-1.79,1.44-3.23,3.23-3.23h13.46
				c1.91,0,3.52,1.56,3.52,3.52v0.69h0.12c2.31,0,4.1,1.85,4.1,4.16v5.72c0,1.73-1.39,3.12-3.12,3.12h-4.45
				C306.25,344.38,304.87,343,304.87,341.27z"/>
		</g>
		<g>
			<path class="st2" d="M24.7,368.35l-1.16-3.49l1.16-5.82v-31.87h10.47v23.9l-0.58,7.97h1.16l10.41-0.58l4.13-0.58l5.12,6.75
				l-2.85,3.72H24.7z"/>
			<path class="st2" d="M56.58,368.35l2.79-9.83v-7.39l4.3-1.75l7.56-22.16h15.06l9.36,26.06l4.48,8.26v6.8H89.84l-2.91-9.31H70.01
				l-2.5,9.31H56.58z M73.85,350.09h9.89l-4.42-13.32h-1.22L73.85,350.09z"/>
			<path class="st2" d="M103.69,368.35l-1.8-3.49l21.05-28.44h-19.25v-9.25h33.44v6.86l-18.09,25.07h1.8l16.4-1.16v10.41H103.69z"/>
			<path class="st2" d="M154.57,368.35v-17.45l-14.42-20.24v-3.49h12.21l6.98,13.14h1.16l6.92-13.14h12.21v3.49l-14.83,20.59
				l0.35,5.88v11.22H154.57z"/>
		</g>
	</g>
	<g>
		<path class="st2" d="M89.49,379.8c1.58-0.24,3.46-0.42,5.52-0.42c3.73,0,6.39,0.87,8.15,2.51c1.79,1.64,2.84,3.97,2.84,7.22
			c0,3.28-1.02,5.97-2.9,7.82c-1.88,1.88-4.98,2.89-8.89,2.89c-1.85,0-3.4-0.09-4.72-0.24V379.8z M92.09,397.58
			c0.66,0.12,1.61,0.15,2.63,0.15c5.55,0,8.57-3.1,8.57-8.54c0.03-4.75-2.66-7.76-8.15-7.76c-1.34,0-2.36,0.12-3.04,0.27V397.58z"/>
		<path class="st2" d="M112.21,381.14c0.03,0.9-0.63,1.61-1.67,1.61c-0.92,0-1.58-0.72-1.58-1.61c0-0.92,0.69-1.64,1.64-1.64
			C111.58,379.5,112.21,380.21,112.21,381.14z M109.28,399.64V385.2h2.63v14.45H109.28z"/>
		<path class="st2" d="M128.71,385.2c-0.06,1.04-0.12,2.21-0.12,3.97v8.39c0,3.31-0.66,5.34-2.06,6.6c-1.4,1.31-3.43,1.73-5.25,1.73
			c-1.73,0-3.64-0.42-4.81-1.19l0.66-2c0.96,0.6,2.45,1.13,4.24,1.13c2.69,0,4.66-1.4,4.66-5.04v-1.61h-0.06
			c-0.81,1.34-2.36,2.42-4.6,2.42c-3.58,0-6.15-3.04-6.15-7.04c0-4.89,3.19-7.67,6.51-7.67c2.51,0,3.88,1.31,4.51,2.51h0.06
			l0.12-2.18H128.71z M126,390.9c0-0.45-0.03-0.84-0.15-1.19c-0.48-1.52-1.76-2.78-3.67-2.78c-2.51,0-4.3,2.12-4.3,5.46
			c0,2.84,1.43,5.19,4.27,5.19c1.61,0,3.07-1.01,3.64-2.69c0.15-0.45,0.21-0.96,0.21-1.4V390.9z"/>
		<path class="st2" d="M135.7,381.14c0.03,0.9-0.63,1.61-1.67,1.61c-0.92,0-1.58-0.72-1.58-1.61c0-0.92,0.69-1.64,1.64-1.64
			C135.07,379.5,135.7,380.21,135.7,381.14z M132.77,399.64V385.2h2.63v14.45H132.77z"/>
		<path class="st2" d="M142.92,381.05v4.15h3.76v2h-3.76v7.79c0,1.79,0.51,2.8,1.97,2.8c0.69,0,1.19-0.09,1.52-0.18l0.12,1.97
			c-0.51,0.21-1.31,0.36-2.33,0.36c-1.22,0-2.21-0.39-2.84-1.1c-0.75-0.78-1.01-2.06-1.01-3.76v-7.88h-2.24v-2h2.24v-3.46
			L142.92,381.05z"/>
		<path class="st2" d="M157.64,399.64l-0.21-1.82h-0.09c-0.81,1.13-2.36,2.15-4.42,2.15c-2.92,0-4.42-2.06-4.42-4.15
			c0-3.49,3.1-5.4,8.69-5.37v-0.3c0-1.19-0.33-3.34-3.28-3.34c-1.34,0-2.75,0.42-3.76,1.08l-0.6-1.73c1.19-0.78,2.92-1.28,4.75-1.28
			c4.42,0,5.49,3.02,5.49,5.91v5.4c0,1.25,0.06,2.48,0.24,3.46H157.64z M157.25,392.27c-2.87-0.06-6.12,0.45-6.12,3.25
			c0,1.7,1.13,2.51,2.48,2.51c1.88,0,3.07-1.19,3.49-2.42c0.09-0.27,0.15-0.57,0.15-0.83V392.27z"/>
		<path class="st2" d="M164.03,378.45h2.63v21.19h-2.63V378.45z"/>
		<path class="st5" d="M170.8,396.48c1.16,0.72,2.87,1.31,4.66,1.31c2.66,0,4.21-1.4,4.21-3.43c0-1.88-1.07-2.96-3.79-4
			c-3.28-1.16-5.31-2.87-5.31-5.7c0-3.13,2.6-5.46,6.51-5.46c2.06,0,3.55,0.48,4.45,0.98l-0.72,2.12c-0.66-0.36-2-0.96-3.82-0.96
			c-2.75,0-3.79,1.64-3.79,3.01c0,1.88,1.22,2.81,4,3.88c3.4,1.31,5.13,2.96,5.13,5.91c0,3.1-2.3,5.79-7.04,5.79
			c-1.94,0-4.06-0.57-5.13-1.28L170.8,396.48z"/>
		<path class="st5" d="M188.86,381.05v4.15h3.76v2h-3.76v7.79c0,1.79,0.51,2.8,1.97,2.8c0.69,0,1.19-0.09,1.52-0.18l0.12,1.97
			c-0.51,0.21-1.31,0.36-2.33,0.36c-1.22,0-2.21-0.39-2.83-1.1c-0.75-0.78-1.01-2.06-1.01-3.76v-7.88h-2.24v-2h2.24v-3.46
			L188.86,381.05z"/>
		<path class="st5" d="M207.66,395.7c0,1.49,0.03,2.81,0.12,3.94h-2.33l-0.15-2.36h-0.06c-0.69,1.16-2.21,2.69-4.78,2.69
			c-2.27,0-4.98-1.25-4.98-6.33v-8.45h2.63v8c0,2.75,0.84,4.6,3.22,4.6c1.76,0,2.98-1.22,3.46-2.39c0.15-0.39,0.24-0.87,0.24-1.34
			v-8.87h2.63V395.7z"/>
		<path class="st5" d="M224.5,378.45v17.46c0,1.28,0.03,2.75,0.12,3.73h-2.36l-0.12-2.51h-0.06c-0.81,1.61-2.57,2.83-4.92,2.83
			c-3.49,0-6.18-2.95-6.18-7.34c-0.03-4.81,2.96-7.76,6.48-7.76c2.21,0,3.7,1.04,4.36,2.21h0.06v-8.62H224.5z M221.87,391.08
			c0-0.33-0.03-0.78-0.12-1.11c-0.39-1.67-1.82-3.04-3.79-3.04c-2.72,0-4.33,2.39-4.33,5.58c0,2.93,1.43,5.34,4.27,5.34
			c1.76,0,3.37-1.16,3.85-3.13c0.09-0.36,0.12-0.72,0.12-1.13V391.08z"/>
		<path class="st5" d="M231.78,381.14c0.03,0.9-0.63,1.61-1.67,1.61c-0.92,0-1.58-0.72-1.58-1.61c0-0.92,0.69-1.64,1.64-1.64
			C231.16,379.5,231.78,380.21,231.78,381.14z M228.86,399.64V385.2h2.63v14.45H228.86z"/>
		<path class="st5" d="M248.92,392.3c0,5.34-3.7,7.67-7.19,7.67c-3.91,0-6.92-2.87-6.92-7.43c0-4.83,3.16-7.67,7.16-7.67
			C246.11,384.87,248.92,387.88,248.92,392.3z M237.46,392.45c0,3.16,1.82,5.55,4.39,5.55c2.51,0,4.39-2.36,4.39-5.61
			c0-2.45-1.22-5.55-4.33-5.55C238.8,386.84,237.46,389.71,237.46,392.45z"/>
	</g>
</g>
</svg>
